<?xml version="1.0" encoding="UTF-8"?>
<svg width="18px" height="18px" viewBox="0 0 18 18" version="1.1" xmlns="http://www.w3.org/2000/svg" xmlns:xlink="http://www.w3.org/1999/xlink">
    <!-- Generator: Sketch 50.2 (55047) - http://www.bohemiancoding.com/sketch -->
    <title>icon-remove</title>
    <desc>Created with Sketch.</desc>
    <defs>
        <polygon id="path-1" points="0.000138461539 17.8222536 7.96236923 17.8222536 7.96236923 0.155742691 0.000138461539 0.155742691"></polygon>
    </defs>
    <g id="icon-remove" stroke="none" stroke-width="1" fill="none" fill-rule="evenodd">
        <g id="Group-61-Copy-2">
            <path d="M9.81818182,0.272727273 L9.81818182,2.02126333 C13.3278357,2.47621484 16.0496434,5.476473 16.0496434,9.10605191 C16.0496434,12.7359768 13.3278357,15.735889 9.81818182,16.1908405 L9.81818182,17.9393765 C14.2856434,17.4761217 17.7804126,13.6915479 17.7804126,9.10605191 C17.7804126,4.52055587 14.2856434,0.735982078 9.81818182,0.272727273" id="Fill-1-Copy" fill="#021D4B"></path>
            <g id="Group-6-Copy">
                <mask id="mask-2" fill="white">
                    <use xlink:href="#path-1"></use>
                </mask>
                <g id="Clip-5"></g>
                <path d="M7.96236923,16.0738559 C4.45271538,15.6189044 1.73090769,12.6186462 1.73090769,8.98906732 C1.73090769,5.35914244 4.45271538,2.35923026 7.96236923,1.90393278 L7.96236923,0.155742691 C3.49525385,0.618997496 0.000138461539,4.40357129 0.000138461539,8.98906732 C0.000138461539,13.5745634 3.49525385,17.3587912 7.96236923,17.822392 L7.96236923,16.0738559 Z" id="Fill-4" fill="#021D4B" mask="url(#mask-2)"></path>
            </g>
        </g>
        <path d="M12.6919643,11.5669643 C12.6919643,11.7455366 12.6294649,11.8973208 12.5044643,12.0223214 L11.59375,12.9330357 C11.4687494,13.0580363 11.3169652,13.1205357 11.1383929,13.1205357 C10.9598205,13.1205357 10.8080363,13.0580363 10.6830357,12.9330357 L8.71428571,10.9642857 L6.74553571,12.9330357 C6.62053509,13.0580363 6.46875089,13.1205357 6.29017857,13.1205357 C6.11160625,13.1205357 5.95982205,13.0580363 5.83482143,12.9330357 L4.92410714,12.0223214 C4.79910652,11.8973208 4.73660714,11.7455366 4.73660714,11.5669643 C4.73660714,11.388392 4.79910652,11.2366078 4.92410714,11.1116071 L6.89285714,9.14285714 L4.92410714,7.17410714 C4.79910652,7.04910652 4.73660714,6.89732232 4.73660714,6.71875 C4.73660714,6.54017768 4.79910652,6.38839348 4.92410714,6.26339286 L5.83482143,5.35267857 C5.95982205,5.22767795 6.11160625,5.16517857 6.29017857,5.16517857 C6.46875089,5.16517857 6.62053509,5.22767795 6.74553571,5.35267857 L8.71428571,7.32142857 L10.6830357,5.35267857 C10.8080363,5.22767795 10.9598205,5.16517857 11.1383929,5.16517857 C11.3169652,5.16517857 11.4687494,5.22767795 11.59375,5.35267857 L12.5044643,6.26339286 C12.6294649,6.38839348 12.6919643,6.54017768 12.6919643,6.71875 C12.6919643,6.89732232 12.6294649,7.04910652 12.5044643,7.17410714 L10.5357143,9.14285714 L12.5044643,11.1116071 C12.6294649,11.2366078 12.6919643,11.388392 12.6919643,11.5669643 Z" id="
" fill="#002A5E"></path>
    </g>
</svg>